<?xml version="1.0" encoding="UTF-8" standalone="no"?>
<!DOCTYPE svg  PUBLIC '-//W3C//DTD SVG 1.1 Tiny//EN'  'http://www.w3.org/Graphics/SVG/1.1/DTD/svg11-tiny.dtd'>
<svg xmlns="http://www.w3.org/2000/svg" width="1000px" xml:space="preserve" height="500px" viewBox="0 0 1000 500" baseProfile="tiny" version="1.1" y="0px" x="0px" xmlns:xlink="http://www.w3.org/1999/xlink">
	<path d="m676 362c-50.2 27.8-121 47.1-202 47.1-146 0-265-58-265-153 0-101 119-157 265-157 81.5 0 153 15.7 203 43-54.8-45.7-153-86.6-266-86.6-172 0.6-312 90.6-312 201 0 100 140 193 312 193 112 0 210-40 265-87z" fill="#004BA9"/>
	<path d="m883 327h-7.35v19.1h-6.42v-19.1h-7.35v-5.52h21.1l-1 6z"/>
	<path d="m886 321h9.45l4.24 16.4h1l4.24-16.4h9.45v24.6h-6.04v-18.7h-0.07l-5.17 18.7h-4.9l-5.18-18.7h-0.07v18.7h-6.04v-25z"/>
<g fill="#004BA9">
	<path d="m314 283c0 6.4 1.15 11.8 3.46 16.2s5.37 8.04 9.19 10.8c3.82 2.75 8.31 4.8 13.5 6.13 5.15 1.33 10.5 2 16 2 3.73 0 7.73-0.31 12-0.93s8.26-1.82 12-3.6c3.73-1.78 6.84-4.22 9.33-7.33s3.73-7.06 3.73-11.9c0-5.15-1.64-9.33-4.93-12.5-3.29-3.2-7.59-5.86-12.9-7.99s-11.4-4-18.1-5.6c-6.75-1.6-13.6-3.38-20.5-5.33-7.11-1.78-14-3.95-20.8-6.53-6.75-2.58-12.8-5.91-18.1-9.99-5.33-4.09-9.64-9.19-12.9-15.3-3.29-6.13-4.93-13.6-4.93-22.2 0-9.77 2.09-18.2 6.26-25.4s9.64-13.2 16.4-18c6.75-4.8 14.4-8.35 22.9-10.7 8.53-2.31 17.1-3.46 25.6-3.46 9.95 0 19.5 1.11 28.6 3.33 9.15 2.22 17.3 5.82 24.4 10.8 7.11 4.97 12.8 11.3 16.9 19s6.26 17.1 6.26 28.1h-40.5c-0.36-5.68-1.55-10.4-3.6-14.1-2.04-3.73-4.75-6.66-8.13-8.79s-7.24-3.64-11.6-4.53c-4.35-0.89-9.1-1.33-14.3-1.33-3.38 0-6.75 0.35-10.1 1.07-3.38 0.71-6.44 1.95-9.19 3.73s-5.02 4-6.8 6.66-2.66 6.04-2.66 10.1c0 3.73 0.71 6.75 2.13 9.06s4.22 4.44 8.4 6.4c4.17 1.95 9.95 3.91 17.3 5.86 7.37 1.95 17 4.44 28.9 7.46 3.55 0.71 8.48 2 14.8 3.86 6.31 1.87 12.6 4.84 18.8 8.93 6.22 4.09 11.6 9.55 16.1 16.4 4.53 6.84 6.8 15.6 6.8 26.2 0 8.7-1.69 16.8-5.06 24.2-3.38 7.46-8.39 13.9-15.1 19.3-6.66 5.42-14.9 9.64-24.8 12.7-9.86 3.02-21.3 4.53-34.2 4.53-10.5 0-20.6-1.29-30.5-3.86-9.86-2.58-18.6-6.62-26.1-12.1-7.55-5.51-13.6-12.5-18-21s-6.57-18.6-6.4-30.4h42z"/>
	<path d="m447 156h85.8c11.9 0 22 1.73 30.4 5.2 8.35 3.46 15.1 8.04 20.4 13.7 5.24 5.68 9.06 12.2 11.5 19.4 2.4 7.28 3.6 14.8 3.6 22.6 0 7.64-1.2 15.2-3.6 22.5-2.4 7.37-6.22 13.9-11.5 19.6-5.24 5.68-12 10.3-20.4 13.7-8.35 3.46-18.5 5.2-30.4 5.2h-44v68.2h-41.8v-191zm42 89h32.5c4.8 0 9.41-0.35 13.9-1.07 4.44-0.71 8.35-2.09 11.7-4.13 3.37-2.04 6.08-4.93 8.13-8.66 2.04-3.73 3.06-8.62 3.06-14.7 0-6.04-1.02-10.9-3.06-14.7-2.04-3.73-4.75-6.62-8.13-8.66s-7.28-3.42-11.7-4.13c-4.44-0.71-9.06-1.07-13.9-1.07h-32.5v58z"/>
	<path d="m614 156h41.8v190h-41.8v-190z"/>
	<path d="m681 156h103c8.53 0 16.2 1.38 23 4.13 6.84 2.75 12.7 6.53 17.6 11.3 4.88 4.8 8.62 10.4 11.2 16.6 2.58 6.31 3.86 13.1 3.86 20.4 0 11.2-2.35 20.9-7.06 29s-12.4 14.4-23 18.6v0.53c5.15 1.42 9.42 3.6 12.8 6.53s6.13 6.4 8.26 10.4 3.69 8.39 4.66 13.2c0.98 4.8 1.64 9.59 2 14.4 0.18 3.02 0.36 6.57 0.53 10.7s0.49 8.26 0.93 12.5 1.16 8.31 2.13 12.1c0.98 3.82 2.44 7.06 4.4 9.73h-41.8c-2.31-6.04-3.73-13.2-4.26-21.6s-1.33-16.3-2.4-24c-1.42-9.95-4.44-17.2-9.06-21.8-4.62-4.62-12.2-6.93-22.6-6.93h-41.8v74.4h-41.8v-189zm42 86h45.8c9.59 0 16.8-2.13 21.6-6.4s7.2-11.2 7.2-20.8c0-9.24-2.4-15.9-7.2-20.1s-12-6.26-21.6-6.26h-45.8v53z"/>
</g>
</svg>
